<svg xmlns="http://www.w3.org/2000/svg" width="192" height="192" viewBox="0 0 512 512">
        
  <defs>
    <linearGradient id="gradient" x1="0%" y1="0%" x2="100%" y2="100%">
      <stop offset="0%" stop-color="#06b6d4" stop-opacity="1"/>
      <stop offset="50%" stop-color="#3b82f6" stop-opacity="1"/>
      <stop offset="100%" stop-color="#8b5cf6" stop-opacity="1"/>
    </linearGradient>
    <filter id="shadow" x="-20%" y="-20%" width="140%" height="140%">
      <feDropShadow dx="0" dy="4" stdDeviation="8" flood-opacity="0.25"/>
    </filter>
  </defs>
  
  <!-- Background circle with gradient -->
  <circle cx="256" cy="256" r="240" fill="url(#gradient)" filter="url(#shadow)"/>
  
  <!-- AI Brain/Neural Network Icon -->
  <g transform="translate(156, 156)">
    <!-- Neural nodes -->
    <circle cx="50" cy="50" r="12" fill="white" opacity="0.9"/>
    <circle cx="150" cy="50" r="12" fill="white" opacity="0.9"/>
    <circle cx="100" cy="100" r="12" fill="white" opacity="0.9"/>
    <circle cx="50" cy="150" r="12" fill="white" opacity="0.9"/>
    <circle cx="150" cy="150" r="12" fill="white" opacity="0.9"/>
    
    <!-- Neural connections -->
    <path d="M50 50 L150 50 M50 50 L100 100 M150 50 L100 100 M100 100 L50 150 M100 100 L150 150 M50 150 L150 150" 
          stroke="white" stroke-width="3" opacity="0.7" stroke-linecap="round"/>
    
    <!-- Central processing unit -->
    <rect x="85" y="85" width="30" height="30" rx="4" fill="white" opacity="0.95"/>
    <rect x="90" y="90" width="20" height="20" rx="2" fill="url(#gradient)"/>
  </g>
  
  <!-- Brand text curve (for larger sizes) -->
  <defs>
    <path id="textcircle" d="M 256,256 m -200,0 a 200,200 0 1,1 400,0 a 200,200 0 1,1 -400,0"/>
  </defs>
  <text font-family="system-ui, -apple-system, sans-serif" font-size="28" font-weight="600" fill="white" opacity="0.8">
    <textPath href="#textcircle" startOffset="50%" text-anchor="middle">
      VIDIBEMUS AI
    </textPath>
  </text>

      </svg>